<svg t="1753771703604" class="icon" viewBox="0 0 1024 1024" version="1.1" xmlns="http://www.w3.org/2000/svg" p-id="10613" width="16" height="16"><path d="M618.549169 431.773538a342.646154 342.646154 0 0 1 134.183385-27.175384c4.608 0 9.176615 0.196923 13.784615 0.196923 21.819077-55.177846 27.411692-120.359385 16.423385-183.729231-25.403077-145.368615-162.619077-242.530462-306.806154-216.930461-143.990154 25.6-265.570462 137.570462-239.970462 282.899692 5.395692 31.389538 20.598154 80.384 38.596924 115.790769L13.128862 780.130462c-9.609846 13.784615-15.241846 38.793846-12.209231 55.768615l11.382154 64.590769c-10.830769-62.227692 2.993231 22.409846 11.382153 22.173539l86.212924 1.181538c16.541538-2.953846 37.415385-16.935385 46.592-31.153231l103.384615-161.752615 0.984615-1.024 90.387693 7.207385 120.792615-189.321847c0.393846 0 0.787692 0.196923 1.181538 0.196923a357.612308 357.612308 0 0 1 35.84-42.023384 337.880615 337.880615 0 0 1 109.449847-74.161231zM69.763938 819.869538l-12.8 5.435077 1.378462-14.020923 250.604308-363.677538 15.005538 13.981538-254.188308 358.281846z m380.770462-669.184c39.620923-56.989538 117.602462-71.207385 174.001231-30.995692a127.212308 127.212308 0 0 1 30.798769 175.970462c-39.620923 56.989538-79.990154 16.777846-136.625231-23.236923-56.32-40.172308-107.756308-64.551385-68.135384-121.737847z" fill="#4D81B7" p-id="10614"></path><path d="M749.345477 474.584615a274.707692 274.707692 0 1 0 0 549.415385 274.707692 274.707692 0 1 0 0-549.415385z m158.798769 387.465847c0 40.999385-78.611692 50.412308-152.418461 50.412307-73.767385 0-153.363692-9.412923-153.363693-50.412307v-11.382154c0-30.208 54.350769-60.809846 100.588308-77.39077 3.426462-1.181538 19.416615-10.003692 10.397538-33.358769a147.534769 147.534769 0 0 1-40.172307-98.776615c0-57.186462 37.809231-87.158154 82.195692-87.158154 44.189538 0 82.392615 29.932308 82.392615 87.158154 0 37.179077-17.408 74.988308-40.172307 98.579692h0.196923c-8.822154 26.584615 5.198769 32.964923 7.404308 33.595077 48.561231 15.990154 103.187692 46.395077 103.187692 77.390769l-0.236308 11.34277z" fill="#85BBFB" p-id="10615"></path></svg>