<svg t="1753708126491" class="icon" viewBox="0 0 1024 1024" version="1.1" xmlns="http://www.w3.org/2000/svg" p-id="62088" id="mx_n_1753708126492" width="16" height="16"><path d="M945.6 340.5L800.7 114.9c-6.2-9.6-15.7-16.2-26.8-18.6-11.1-2.4-22.6-0.4-32.1 5.8L479.6 270.4c-9.6 6.2-16.2 15.7-18.6 26.8-2.4 11.1-0.4 22.6 5.8 32.1l23.2 36.1c9.5 14.9 29.3 19.2 44.2 9.6 14.9-9.5 19.2-29.3 9.6-44.2l-11.6-18.1 226.3-145.3 121.8 189.7-226.4 145.3-6.2-9.6c-9.6-14.9-29.3-19.2-44.2-9.6-14.9 9.5-19.2 29.3-9.6 44.2l17.7 27.6c6.2 9.6 15.7 16.2 26.8 18.6 3.1 0.7 6.1 1 9.2 1 8.1 0 16-2.3 23-6.8l262.2-168.3c19.7-12.7 25.5-39.2 12.8-59zM544.3 611.1l-25.5-20.6c-13.7-11.1-33.9-9-45 4.7-11.1 13.7-9 33.9 4.7 45l8.9 7.2-169.3 209-175.2-142 169.3-208.9L329 519c13.7 11.1 33.9 9 45-4.7 11.1-13.7 9-33.9-4.7-45l-33.3-27c-8.8-7.2-20-10.5-31.3-9.3-11.3 1.2-21.5 6.7-28.7 15.6L79.8 690.7c-14.8 18.3-12 45.2 6.3 60l208.3 168.8c7.9 6.4 17.4 9.5 26.8 9.5 12.4 0 24.8-5.4 33.2-15.8l196.2-242.1c7.2-8.8 10.5-20 9.3-31.3-1.2-11.3-6.8-21.5-15.6-28.7z" fill="#D84E4E" p-id="62089"></path><path d="M520.4 488.6c5.9 0 11.8-1.6 17.2-5L642.2 417c14.9-9.5 19.3-29.3 9.8-44.2-9.5-14.9-29.3-19.3-44.2-9.8l-104.6 66.6c-14.9 9.5-19.3 29.3-9.8 44.2 6.1 9.6 16.4 14.8 27 14.8zM430.8 494.8L353 591.4c-11.1 13.8-8.9 33.9 4.9 45 5.9 4.8 13 7.1 20 7.1 9.4 0 18.6-4.1 24.9-11.9l77.8-96.6c11.1-13.8 8.9-33.9-4.9-45-13.7-11.1-33.8-8.9-44.9 4.8zM278.1 271.3c6.3 7.9 15.6 12.1 25.1 12.1 7 0 14-2.3 19.9-7 13.8-11 16.1-31.1 5.1-45L277.8 168c-11-13.8-31.1-16.1-45-5.1-13.8 11-16.1 31.1-5.1 45l50.4 63.4zM166 405.2c3.9 0 7.9-0.7 11.8-2.3l75.3-29.9c16.4-6.5 24.5-25.1 18-41.5s-25.1-24.5-41.5-18l-75.3 29.9c-16.4 6.5-24.5 25.1-18 41.5 4.9 12.7 17 20.3 29.7 20.3zM393.4 236c4 1.6 8.1 2.4 12.2 2.4 12.6 0 24.5-7.5 29.6-19.8l30.8-74.9c6.7-16.3-1.1-35-17.4-41.8-16.3-6.7-35 1.1-41.8 17.4l-30.8 75c-6.8 16.3 1 35 17.4 41.7z" fill="#D84E4E" p-id="62090"></path></svg>