<svg t="1753707731126" class="icon" viewBox="0 0 1024 1024" version="1.1" xmlns="http://www.w3.org/2000/svg" p-id="28492" width="16" height="16"><path d="M82.88 544.192c57.6 57.6 185.6 96 332.8 102.4 64-166.4 249.6-243.2 416-179.2 19.2 6.4 38.4 19.2 51.2 25.6 6.4-19.2 6.4-6.4 6.4-243.2v-19.2c25.6 102.4-172.8 192-422.4 192-230.4 0-422.4-76.8-422.4-172.8v224c6.4 25.6 19.2 51.2 38.4 70.4z m57.6-134.4c25.6-6.4 51.2 12.8 57.6 38.4 6.4 25.6-12.8 51.2-38.4 57.6-25.6 6.4-51.2-12.8-57.6-38.4v-6.4c-6.4-32 12.8-51.2 38.4-51.2zM396.48 716.992c-198.4-12.8-352-83.2-352-172.8v224c0 32 12.8 57.6 38.4 76.8 64 57.6 204.8 102.4 364.8 102.4-44.8-70.4-64-153.6-51.2-230.4z m-256 83.2c-25.6 6.4-51.2-12.8-57.6-38.4s12.8-51.2 38.4-57.6 51.2 12.8 57.6 38.4v6.4c0 32-19.2 51.2-38.4 51.2z" fill="#1296db" p-id="28493"></path><path d="M466.88 345.792c230.4 0 422.4-76.8 422.4-172.8s-185.6-172.8-422.4-172.8-422.4 76.8-422.4 172.8 192 172.8 422.4 172.8zM978.88 742.592c0-25.6-19.2-25.6-44.8-25.6-19.2 0-19.2-19.2-25.6-38.4-12.8-32 38.4-44.8 12.8-76.8-32-32-44.8-51.2-70.4-38.4-12.8 12.8-25.6 25.6-44.8 12.8-19.2-6.4-32-12.8-38.4-25.6-6.4-51.2-12.8-44.8-76.8-44.8-38.4 0-12.8 51.2-44.8 64-19.2 6.4-32 19.2-44.8 6.4-38.4-32-38.4-25.6-83.2 25.6-19.2 19.2-6.4 32 12.8 51.2 12.8 12.8 0 25.6-6.4 44.8-12.8 32-64 6.4-64 44.8v57.6c6.4 25.6 25.6 12.8 44.8 19.2 6.4 0 6.4 6.4 12.8 12.8 0 0 0 6.4 6.4 12.8 6.4 12.8 12.8 25.6 0 38.4-25.6 38.4-25.6 38.4 25.6 83.2 25.6 25.6 44.8-25.6 76.8-12.8 12.8 6.4 32 6.4 32 19.2 6.4 6.4 0 25.6 6.4 32 6.4 19.2 38.4 12.8 70.4 12.8 38.4 0 12.8-51.2 44.8-64 38.4-12.8 32-19.2 64 6.4 25.6 19.2 44.8-12.8 70.4-38.4 25.6-25.6-25.6-44.8-12.8-76.8 0-6.4 6.4-12.8 6.4-19.2 6.4-19.2 19.2-19.2 38.4-19.2 38.4 6.4 32-25.6 32-64z m-256 115.2c-51.2 0-89.6-38.4-89.6-89.6 0-51.2 38.4-89.6 89.6-89.6 51.2 0 89.6 38.4 89.6 89.6 0 44.8-44.8 89.6-89.6 89.6z" fill="#1296db" p-id="28494"></path></svg>