<svg t="1753708257848" class="icon" viewBox="0 0 1024 1024" version="1.1" xmlns="http://www.w3.org/2000/svg" p-id="68188" width="16" height="16">
  <defs>
    <filter id="openGlow" x="-20%" y="-20%" width="140%" height="140%">
      <feDropShadow dx="0" dy="0" stdDeviation="1" flood-color="#1296db" flood-opacity="0.6"/>
    </filter>
  </defs>
  
  <path d="M169.386667 195.413333l23.466666 23.466667-95.786666 95.786667 74.965333 74.965333 96.298667-96.298667 21.845333 21.845334-96.810667 96.298666 73.941334 73.898667L486.4 266.24 219.904 0.768 1.28 219.392l72.362667 72.362667L169.429333 195.413333z m581.973333 335.786667l-219.136 219.136 73.941333 73.941333 96.298667-96.298666 21.845333 21.845333-96.298666 96.298667 74.965333 74.965333 95.786667-95.786667 23.424 23.466667-95.786667 95.744 72.362667 72.362667 218.624-218.624-265.984-267.050667z m229.589333-280.576a68.181333 68.181333 0 0 0 0.512-96.298667L861.738667 34.602667a67.712 67.712 0 0 0-96.298667 0.512l-73.898667 73.941333 215.466667 215.466667 73.941333-73.898667zM668.16 130.901333l-508.586667 508.586667 217.6 217.6 508.586667-508.586667-217.6-217.6zM258.432 638.933333l409.173333-409.130666 23.893334 23.936-409.130667 409.173333-23.893333-23.978667z m47.36 47.914667l409.173333-409.685333 23.893334 23.978666-409.088 409.130667-23.978667-23.466667z m47.914667 47.36l409.173333-409.173333 23.893333 23.978666-409.130666 409.173334-23.936-23.978667z m-324.309334 253.013333l104.618667-38.016-66.602667-66.645333-38.016 104.618667z m48.938667-139.008l89.514667 89.514667 180.650666-64-205.653333-206.122667-64.512 180.608z" fill="#1296db" p-id="68189"   filter="url(#openGlow)"></path></svg>