<svg t="1753709612881" class="icon" viewBox="0 0 1383 1024" version="1.1" xmlns="http://www.w3.org/2000/svg"
     p-id="152309" width="16" height="16">
  <defs>
    <filter id="openGlow" x="-20%" y="-20%" width="140%" height="140%">
      <feDropShadow dx="0" dy="0" stdDeviation="1" flood-color="#1296db" flood-opacity="0.6"/>
    </filter>
  </defs>
  
  
    <path d="M499.581386 36.635234v313.986723a34.69617 34.69617 0 0 0 34.652595 34.794213h121.725277v94.480341H191.041471a34.69617 34.69617 0 0 0-34.66349 34.794212v124.187234H34.652705A34.69617 34.69617 0 0 0 0.000109 673.661277v313.986723a34.69617 34.69617 0 0 0 34.652596 34.794213h312.766638a34.69617 34.69617 0 0 0 34.663489-34.794213V673.661277a34.69617 34.69617 0 0 0-34.663489-34.794213h-122.008511v-89.665362H655.686917v89.665362H533.950747a34.69617 34.69617 0 0 0-34.652596 34.794213v313.986723a34.69617 34.69617 0 0 0 34.652596 34.794213h312.766639a34.69617 34.69617 0 0 0 34.663489-34.794213V673.661277a34.69617 34.69617 0 0 0-34.663489-34.794213H724.992109v-89.665362h430.265191v89.665362H1033.532024a34.69617 34.69617 0 0 0-34.66349 34.794213v313.986723a34.69617 34.69617 0 0 0 34.66349 34.794213h312.755745a34.69617 34.69617 0 0 0 34.663489-34.794213V673.661277a34.69617 34.69617 0 0 0-34.652596-34.794213h-121.725276v-124.187234a34.69617 34.69617 0 0 0-34.66349-34.783319H724.992109V385.41617h121.725277a34.69617 34.69617 0 0 0 34.663489-34.794213V36.635234A34.69617 34.69617 0 0 0 846.717386 1.841021h-312.755745c-18.889532 0-34.380255 15.556085-34.380255 34.794213z m-186.825532 915.935319H69.327088V707.889021H312.755854v244.681532z m499.308936 0H568.320109V707.889021h243.733787v244.681532z m499.287149 0H1067.912279V707.889021h243.722894v244.681532h-0.283234zM568.614237 71.146213H812.33713v244.681532H568.614237V71.146213z"
          fill="#1296db" p-id="152310"   filter="url(#openGlow)"></path>
</svg>