<svg t="1753680035478" class="icon" viewBox="0 0 1024 1024" version="1.1" xmlns="http://www.w3.org/2000/svg" p-id="16718" width="16" height="16"><path d="M930.88 139.648C930.88 62.528 743.392 0 511.936 0S93.12 62.528 93.12 139.648v186.112a65.504 65.504 0 0 0 24.32 46.592A65.504 65.504 0 0 0 93.12 418.944v186.112a65.504 65.504 0 0 0 24.32 46.592A65.504 65.504 0 0 0 93.12 698.112v186.112C93.12 961.44 280.608 1024 511.936 1024s418.944-62.528 418.944-139.648v-186.24a65.728 65.728 0 0 0-24.32-46.592 65.504 65.504 0 0 0 24.32-46.592v-185.984a65.728 65.728 0 0 0-24.32-46.592 65.504 65.504 0 0 0 24.32-46.592zM511.936 791.296c-205.632 0-372.352-41.6-372.352-93.056a33.056 33.056 0 0 1 11.36-22.4c72.736 41.184 207.008 69.088 360.864 69.088s288.256-27.776 360.992-69.088a33.056 33.056 0 0 1 11.36 22.4c0 51.2-166.624 93.056-372.224 93.056m0-279.296c-205.632 0-372.352-41.6-372.352-93.056a33.056 33.056 0 0 1 11.36-22.4c72.736 41.184 207.008 68.96 360.864 68.96s288.256-27.776 360.992-68.96a33.056 33.056 0 0 1 11.36 22.4c0 51.392-166.624 93.056-372.224 93.056m0-279.296c-205.632 0-372.352-41.6-372.352-93.056s166.72-93.056 372.352-93.056 372.352 41.6 372.352 93.056-166.72 93.056-372.352 93.056" fill="#5B8FF9" p-id="16719"></path></svg>