<svg t="1762649789268" class="icon" viewBox="0 0 1024 1024" version="1.1" xmlns="http://www.w3.org/2000/svg" p-id="5771" width="20" height="20"><path d="M306.773333 400.085333v4.266667c-4.266667 8.533333-12.8 17.066667-25.6 17.066667h-8.533333c-93.866667 12.8-170.666667 98.133333-170.666667 200.533333 0 110.933333 89.6 196.266667 196.266667 196.266667 51.2 0 98.133333-21.333333 140.8-59.733334 29.866667-29.866667 51.2-64 64-102.4l-72.533333-12.8c-8.533333 0-12.8-8.533333-12.8-17.066666 0-4.266667 0-4.266667 4.266666-8.533334l132.266667-153.6c4.266667-8.533333 17.066667-8.533333 21.333333 0 0 0 4.266667 4.266667 4.266667 8.533334l68.266667 187.733333c4.266667 8.533333 0 17.066667-8.533334 21.333333h-8.533333l-72.533333-12.8c-12.8 46.933333-38.4 93.866667-72.533334 128 34.133333 12.8 72.533333 21.333333 115.2 21.333334 170.666667 0 311.466667-140.8 311.466667-311.466667s-140.8-311.466667-311.466667-311.466667c-132.266667-4.266667-247.466667 81.066667-294.4 204.8z m-8.533333 418.133334c4.266667 0 4.266667 0 0 0z" fill="#5B8FF9" p-id="5772"></path></svg>