<svg viewBox="0 0 1024 1024" xmlns="http://www.w3.org/2000/svg" width="16" height="16">
  <path d="M756.215571 706.589171l237.39501-54.318013a27.176215 27.176215 0 0 0 18.100985-12.493228 27.182668 27.182668 0 0 0 3.620197-10.501368c0.460322-3.706239 0.152724-7.464102-0.905587-11.04558L913.514529 180.337716a27.95489 27.95489 0 0 0-12.852452-17.290044 28.234525 28.234525 0 0 0-21.269464-3.17063l-237.302516 54.318012a28.503405 28.503405 0 0 0-17.105055 12.856755 27.976401 27.976401 0 0 0-3.078135 21.183422l100.640616 437.893266a28.16139 28.16139 0 0 0 12.828791 17.292195 28.13988 28.13988 0 0 0 21.293126 3.168479h-0.453869zM674.400839 977.185454l287.804587-266.520066c10.860591-10.955237 8.145981-17.653569-6.876869-12.312542l-197.75353 45.264294a50.144999 50.144999 0 0 0-35.479222 32.682871l-60.005357 193.098685c-4.071915 14.665777 1.359456 18.739843 12.310391 7.786758zM149.381929 890.184569l430.893788 133.258957a31.398702 31.398702 0 0 0 35.479221-20.368179l72.40394-231.215078a28.759379 28.759379 0 0 0 0.99378-11.133773 29.056222 29.056222 0 0 0-10.587409-19.101218 29.86071 29.86071 0 0 0-9.955004-5.16034l-430.895939-131.903803a29.039013 29.039013 0 0 0-21.811526 2.44573 28.694847 28.694847 0 0 0-13.665545 17.109357L130.467851 854.877431a28.795946 28.795946 0 0 0 2.262892 21.546948 28.243129 28.243129 0 0 0 16.651186 13.76019zM10.186106 416.893822l87.42679 382.671817c2.716761 14.936808 9.776468 14.936808 13.577352 0l60.003206-193.191179a54.330919 54.330919 0 0 0-10.860591-47.529337l-137.838517-148.739978c-9.683973-11.226268-16.653336-8.148132-12.30824 6.788677zM347.135459 7.880392L17.065126 313.235299a27.879604 27.879604 0 0 0-1.357305 39.108022l164.988919 178.525402a28.32702 28.32702 0 0 0 19.548634 9.051568 27.929078 27.929078 0 0 0 20.090695-7.513576l329.982141-306.081957a27.103079 27.103079 0 0 0 6.493984-8.716006 27.12459 27.12459 0 0 0 2.557584-10.565899 27.894661 27.894661 0 0 0-7.330738-19.826118L387.319001 8.783828a27.139647 27.139647 0 0 0-9.049417-6.336958 28.047385 28.047385 0 0 0-21.630839-0.542061 29.140112 29.140112 0 0 0-9.503286 5.973432zM666.164514 699.708c15.115344 4.16441 24.526136-3.983722 20.544565-19.462592l-95.482428-413.451021c-4.074066-14.936808-16.382306-19.010874-27.152553-8.238475L253.100681 547.528512c-10.950935 10.772398-8.145981 22.994597 6.786525 27.159007l406.277308 125.020481zM828.529167 123.122255L452.119022 7.880392c-14.932506-4.074066-18.100985 1.447649-5.519564 13.579503l137.838517 148.288261a52.315396 52.315396 0 0 0 21.811526 12.312541 53.023088 53.023088 0 0 0 24.980005 0.903436l197.751379-45.264293c14.573283-3.710541 14.573283-10.591711-0.451718-14.575434z" fill="#D30971"/>
  <circle cx="896" cy="128" r="128" fill="#ffffff" stroke="#D30971" stroke-width="24"/>
  <text x="896" y="128" text-anchor="middle" dominant-baseline="central"
        font-family="Inter, Arial, Helvetica, sans-serif" font-size="180" font-weight="700"
        fill="#D30971">2</text>
</svg>
