<svg t="1761400849122" class="icon" viewBox="0 0 1024 1024" version="1.1" xmlns="http://www.w3.org/2000/svg" p-id="10886" width="16" height="16"><path d="M195.260632 130.263579a40.421053 40.421053 0 0 0-40.421053 40.421053v646.736842c0 22.312421 18.108632 40.421053 40.421053 40.421052h646.736842a40.421053 40.421053 0 0 0 40.421052-40.421052v-646.736842a40.421053 40.421053 0 0 0-40.421052-40.421053h-646.736842z m-107.789474 40.421053a107.789474 107.789474 0 0 1 107.789474-107.789474h646.736842a107.789474 107.789474 0 0 1 107.789473 107.789474v646.736842a107.789474 107.789474 0 0 1-107.789473 107.789473h-646.736842a107.789474 107.789474 0 0 1-107.789474-107.789473v-646.736842z m294.373053 323.368421a154.246737 154.246737 0 0 1 254.760421-117.059369 33.684211 33.684211 0 0 0 43.92421-51.09221 221.615158 221.615158 0 1 0 0 336.303158 33.684211 33.684211 0 0 0-43.92421-51.092211 154.246737 154.246737 0 0 1-254.706527-117.059368z" p-id="10887" fill="#DB2777"></path></svg>