<svg t="1761400904617" class="icon" viewBox="0 0 1024 1024" version="1.1" xmlns="http://www.w3.org/2000/svg" p-id="13100" id="mx_n_1761400904618" width="16" height="16"><path d="M307.584 443.968c16.192-36.288 24.384-80.64 24.384-131.968 0-66.56 16.512-115.2 47.616-140.672a83.2 83.2 0 0 1 46.08-19.328h-0.64v-80c-4.8 0-47.872 0.96-90.56 33.024a187.2 187.2 0 0 0-58.24 75.136c-16.064 36.224-24.192 80.64-24.192 131.84 0 66.56-16.64 115.2-48 140.672-21.888 17.728-44.16 19.2-46.528 19.328h-11.52a8 8 0 0 0-8 8v64c0 4.416 3.584 8 8 8h12.032c0.192 0 21.568 1.024 43.072 17.088 33.28 24.832 50.944 74.24 50.944 142.912 0 51.2 8.128 95.616 24.192 131.84 13.76 31.168 33.408 56.448 58.24 75.136 42.688 32.128 85.76 33.024 90.56 33.024v-80h0.64c-0.96 0-23.744-1.024-46.08-19.328-31.104-25.472-47.616-74.112-47.616-140.672 0-51.264-8.192-95.68-24.384-131.968A190.336 190.336 0 0 0 257.728 512a190.08 190.08 0 0 0 49.856-68.032z m578.432 36.032a8 8 0 0 0-8-8h-12.032c-0.192 0-21.568-1.024-43.072-17.088-33.28-24.832-50.944-74.24-50.944-142.912 0-51.2-8.128-95.616-24.192-131.84a187.2 187.2 0 0 0-58.24-75.136 160.704 160.704 0 0 0-90.56-33.024v80h-0.64c1.024 0 23.744 1.024 46.08 19.328 31.104 25.472 47.552 74.112 47.552 140.672 0 51.264 8.256 95.68 24.448 131.968 12.224 27.392 28.992 50.24 49.856 68.032a190.08 190.08 0 0 0-49.856 68.032c-16.192 36.288-24.448 80.64-24.448 131.968 0 66.56-16.448 115.2-47.552 140.672a83.2 83.2 0 0 1-46.08 19.328h0.64v80c4.8 0 47.872-0.96 90.56-33.024 24.832-18.688 44.48-43.968 58.24-75.136 16.064-36.224 24.256-80.64 24.256-131.84 0-66.56 16.576-115.2 48-140.672 21.824-17.728 44.16-19.2 46.464-19.328h11.52a8 8 0 0 0 8-8v-64z" fill="#059669" p-id="13101"></path></svg>