<svg t="1761400711035" class="icon" viewBox="0 0 1024 1024" version="1.1" xmlns="http://www.w3.org/2000/svg" p-id="7635" width="16" height="16"><path d="M704 448c-59.52 0-113.6 21.12-157.056 55.168-1.024-1.408-1.6-3.136-2.944-4.416L426.048 380.8l224-224a32 32 0 0 0-45.248-45.248l-224 224L301.248 256l119.552-119.552a32 32 0 0 0-45.248-45.248L256 210.752 118.656 73.344a32 32 0 0 0-45.248 45.248L498.752 544c1.344 1.344 3.008 1.92 4.48 2.944A253.248 253.248 0 0 0 448 704a256 256 0 1 0 256-256z m0 384c-70.592 0-128-57.408-128-128s57.408-128 128-128 128 57.408 128 128-57.408 128-128 128z" p-id="7636" fill="#EA580C"></path></svg>