<svg t="1761400999287" class="icon" viewBox="0 0 1024 1024" version="1.1" xmlns="http://www.w3.org/2000/svg" p-id="16604" id="mx_n_1761400999289" width="16" height="16"><path d="M0 192l0 704 1024 0 0-704-1024 0zM384 640l0-128 256 0 0 128-256 0zM640 704l0 128-256 0 0-128 256 0zM640 320l0 128-256 0 0-128 256 0zM320 320l0 128-256 0 0-128 256 0zM64 512l256 0 0 128-256 0 0-128zM704 512l256 0 0 128-256 0 0-128zM704 448l0-128 256 0 0 128-256 0zM64 704l256 0 0 128-256 0 0-128zM704 832l0-128 256 0 0 128-256 0z" fill="#2563EB" p-id="16605"></path></svg>