<svg t="1761401052622" class="icon" viewBox="0 0 1024 1024" version="1.1" xmlns="http://www.w3.org/2000/svg" p-id="19170" width="16" height="16"><path d="M896 341.333333c-23.466667 0-42.666667-19.2-42.666667-42.666666V170.666667H640v682.666666h128c23.466667 0 42.666667 19.2 42.666667 42.666667s-19.2 42.666667-42.666667 42.666667H256c-23.466667 0-42.666667-19.2-42.666667-42.666667s19.2-42.666667 42.666667-42.666667h128V170.666667H170.666667v128c0 23.466667-19.2 42.666667-42.666667 42.666666s-42.666667-19.2-42.666667-42.666666V128c0-23.466667 19.2-42.666667 42.666667-42.666667h768c23.466667 0 42.666667 19.2 42.666667 42.666667v170.666667c0 23.466667-19.2 42.666667-42.666667 42.666666zM469.333333 853.333333h85.333334V170.666667h-85.333334v682.666666z" fill="#0891B2" p-id="19171"></path></svg>