<svg t="1753709537652" class="icon" viewBox="0 0 1024 1024" version="1.1" xmlns="http://www.w3.org/2000/svg" p-id="151199" width="16" height="16">
  <defs>
    <filter id="openState" x="-50%" y="-50%" width="200%" height="200%">
      <!-- 外发光效果 -->
      <feGaussianBlur stdDeviation="2" result="coloredBlur"/>
      <feFlood flood-color="#60A5FA" flood-opacity="0.4"/>
      <feComposite in="SourceGraphic" in2="coloredBlur" operator="over"/>
      
      <!-- 内阴影效果 -->
      <feDropShadow dx="0" dy="0" stdDeviation="1" flood-color="rgba(96, 165, 250, 0.3)"/>
      
      <!-- 亮度增强 -->
      <feComponentTransfer>
        <feFuncA type="discrete" tableValues="0 .5 .5 .7 .7 .8 .9 1"/>
      </feComponentTransfer>
    </filter>
    
    <!-- 添加一个小的打开指示器 -->
    <circle id="openIndicator" cx="12" cy="4" r="2" fill="#60A5FA" opacity="0.8" filter="url(#openState)">
      <animate attributeName="opacity" values="0.8;1;0.8" dur="2s" repeatCount="indefinite"/>
    </circle>
  </defs>
  <path d="M827.455935 1023.658801H199.845406a101.920908 101.920908 0 0 1-71.797943-31.000333A111.230757 111.230757 0 0 1 97.485814 916.863627V441.183978h-48.450207A51.277281 51.277281 0 0 1 0.000488 389.711726v-77.988261a52.495848 52.495848 0 0 1 14.622799-36.215798 48.060266 48.060266 0 0 1 34.119864-15.597652h105.869064l105.332894-189.462732a26.662237 26.662237 0 0 1 4.874267-7.750083A127.02338 127.02338 0 0 1 341.58907 4.937144 110.840816 110.840816 0 0 1 433.810188 17.269038a20.959345 20.959345 0 0 1 6.287804 3.801928l169.721953 104.406784 106.941402-38.99413a43.38097 43.38097 0 0 1 8.383738-2.437134 124.732475 124.732475 0 0 1 45.281934-8.481223 126.730924 126.730924 0 0 1 24.371332 2.388391 68.970868 68.970868 0 0 1 51.179796 48.742663 7.213914 7.213914 0 0 1 1.705993 4.58181l36.508255 128.436917h90.271412a48.742663 48.742663 0 0 1 34.461062 15.597652l5.995348 6.482774h-0.877368a54.250584 54.250584 0 0 1 9.553562 29.83051v77.988261a51.277281 51.277281 0 0 1-48.742663 51.61848h-45.330677v475.53342a109.963448 109.963448 0 0 1-30.366679 75.648613 98.65515 98.65515 0 0 1-71.700457 31.244047z m-511.797962-298.987495a26.90595 26.90595 0 1 0 0 53.61693h326.868298l-43.868396 43.868396a26.90595 26.90595 0 0 0 19.058381 45.915589 27.100921 27.100921 0 0 0 19.107124-7.847569l90.125184-90.027698a27.052178 27.052178 0 0 0 0-38.116763 26.662237 26.662237 0 0 0-23.445221-7.457627zM406.075613 511.86084a26.467266 26.467266 0 0 0-18.960896 7.945054l-87.736793 87.736793a26.954693 26.954693 0 0 0 16.231307 48.450207h391.842268a26.90595 26.90595 0 1 0 0-53.616929h-326.575843l43.868397-44.11211a26.954693 26.954693 0 0 0-19.058381-45.964331zM48.743151 298.904145a16.328792 16.328792 0 0 0-8.627452 3.363244 18.132271 18.132271 0 0 0-3.460729 9.748532v77.549577a16.816219 16.816219 0 0 0 3.460729 9.309849A14.963998 14.963998 0 0 0 48.743151 402.677275h925.671913a16.767476 16.767476 0 0 0 8.871165-3.801928 17.498616 17.498616 0 0 0 3.411986-9.309849V311.869693a18.619697 18.619697 0 0 0-3.558214-9.602304 16.377535 16.377535 0 0 0-8.871165-3.606957z m247.515242-216.758622a14.622799 14.622799 0 0 1-2.095934 2.38839 1.511023 1.511023 0 0 0-0.341199 0.73114 5.361693 5.361693 0 0 1-0.73114 1.511023v1.413537l-1.852221 1.900964-94.219567 170.014408h184.442236L475.046481 92.673938l-54.981724-38.994131a85.83583 85.83583 0 0 0-46.597985-13.599203 84.324807 84.324807 0 0 0-24.078876 3.509472 94.463281 94.463281 0 0 0-50.643627 34.899747v3.704442z m470.317956 32.267642a89.199073 89.199073 0 0 0-30.707878 5.459179 14.232858 14.232858 0 0 1-6.629002 2.827074l-78.329459 28.124517 176.107241 109.08608h19.107124l-34.119864-117.762274v-2.388391a33.291239 33.291239 0 0 0-25.346185-23.055279 91.87992 91.87992 0 0 0-20.081977-2.339648zM508.483948 107.296737L424.061656 259.910015h330.816454L569.850961 146.290867l-61.367013-38.99413zM354.40839 234.027661L282.074278 195.03353l16.962447-34.119864 72.334112 38.99413-16.864961 34.119865z m44.11211-84.812234l-72.285369-40.895094 18.278499-34.119865 72.334112 40.797609-18.278499 34.119865z" fill="#863E8E" p-id="151200"  filter="url(#openState)"></path><use href="#openIndicator"/></svg>