<svg t="1754639137039" class="icon" viewBox="0 0 1066 1024" version="1.1" xmlns="http://www.w3.org/2000/svg" p-id="7700" width="16" height="16"><path d="M384 704a42.666667 42.666667 0 1 0 0 85.333333 42.666667 42.666667 0 0 0 0-85.333333zM554.666667 85.333333C384 85.333333 213.333333 143.786667 213.333333 256v512c0 112.213333 170.666667 170.666667 341.333334 170.666667s341.333333-58.453333 341.333333-170.666667V256c0-112.213333-170.666667-170.666667-341.333333-170.666667z m256 682.666667c0 30.293333-97.28 85.333333-256 85.333333s-256-55.04-256-85.333333v-139.52A561.493333 561.493333 0 0 0 554.666667 682.666667a561.493333 561.493333 0 0 0 256-54.186667V768z m0-256c0 30.293333-97.28 85.333333-256 85.333333s-256-55.04-256-85.333333V372.48A561.493333 561.493333 0 0 0 554.666667 426.666667a561.493333 561.493333 0 0 0 256-54.186667V512z m-256-170.666667C395.946667 341.333333 298.666667 286.293333 298.666667 256s97.28-85.333333 256-85.333333 256 55.04 256 85.333333-97.28 85.333333-256 85.333333z m-170.666667 106.666667a42.666667 42.666667 0 1 0 0 85.333333 42.666667 42.666667 0 0 0 0-85.333333z" fill="#D1D5DB" p-id="7701"></path></svg>