<svg t="1754639288195" class="icon" viewBox="0 0 1024 1024" version="1.1" xmlns="http://www.w3.org/2000/svg" p-id="13751" width="16" height="16"><path d="M853.333 576a85.333 85.333 0 0 1 85.334 85.333V768a85.333 85.333 0 0 1-85.334 85.333H170.667A85.333 85.333 0 0 1 85.333 768V661.333A85.333 85.333 0 0 1 170.667 576h682.666z m-288 106.667H458.667a32 32 0 0 0-3.072 63.85l3.072 0.15h106.666a32 32 0 0 0 0-64z m288-426.667a85.333 85.333 0 0 1 85.334 85.333V448a85.333 85.333 0 0 1-85.334 85.333H170.667A85.333 85.333 0 0 1 85.333 448V341.333A85.333 85.333 0 0 1 170.667 256h682.666z m-288 106.667H458.667a32 32 0 0 0-3.072 63.85l3.072 0.15h106.666a32 32 0 0 0 0-64zM732.651 128a85.333 85.333 0 0 1 60.352 25.003l60.33 60.33H170.667l60.33-60.33A85.333 85.333 0 0 1 291.35 128h441.302z" fill="#60A5FA" p-id="13752"></path></svg>