<svg t="1754639640500" class="icon" viewBox="0 0 1024 1024" version="1.1" xmlns="http://www.w3.org/2000/svg" p-id="39646" width="16" height="16"><path d="M872.89856 363.97056a8.72448 8.72448 0 0 0-0.65536-12.41088 9.0112 9.0112 0 0 0-5.81632-2.29376H786.8416a8.6016 8.6016 0 0 0-6.71744 3.072l-134.84032 159.3344a8.72448 8.72448 0 0 1-14.70464-2.12992l-69.632-154.99264a8.68352 8.68352 0 0 0-8.02816-5.16096H367.90272l0.98304-5.16096 8.76544-46.40768c11.50976-60.78464 41.69728-89.2928 94.12608-89.2928 20.43904 0 38.95296 1.8432 53.57568 5.12l15.44192-73.27744c-24.7808-5.16096-38.62528-6.67648-60.2112-6.67648-113.33632 0-171.6224 48.57856-193.00352 161.5872L277.2992 349.47072H170.1888a8.72448 8.72448 0 0 0-8.56064 7.04512l-11.8784 56.81152a8.84736 8.84736 0 0 0 8.6016 10.6496h103.46496L164.16768 895.63136a8.84736 8.84736 0 0 0 8.56064 10.6496H245.3504c4.17792 0 7.7824-2.94912 8.56064-7.00416L352.256 424.09984h149.01248l74.83392 152.61696a8.68352 8.68352 0 0 1-1.31072 9.66656l-198.16448 222.69952a8.8064 8.8064 0 0 0 6.5536 14.58176h79.79008a8.6016 8.6016 0 0 0 6.67648-3.072l135.74144-160.9728a8.84736 8.84736 0 0 1 12.41088-1.06496 9.0112 9.0112 0 0 1 2.29376 3.072l72.17152 156.54912c1.4336 3.072 4.5056 5.16096 8.02816 5.16096h70.8608a8.8064 8.8064 0 0 0 7.90528-12.61568l-104.448-218.19392a8.72448 8.72448 0 0 1 1.4336-9.66656l196.8128-218.89024z" fill="#B37FEB" p-id="39647"></path></svg>