<svg t="1753708841496" class="icon" viewBox="0 0 1024 1024" version="1.1" xmlns="http://www.w3.org/2000/svg" p-id="147675" width="16" height="16">
  <defs>
    <filter id="openGlow" x="-20%" y="-20%" width="140%" height="140%">
      <feDropShadow dx="0" dy="0" stdDeviation="1" flood-color="#60A5FA" flood-opacity="0.6"/>
    </filter>
  </defs>
  
  <path d="M125.333 318.667h257.76v580h-257.76z" fill="#60A5FA" p-id="147676"   filter="url(#openGlow)"></path><path d="M106.667 106.667h810.666v230.666H106.667z" fill="#60A5FA" p-id="147677"  filter="url(#openGlow)"></path><path d="M106.667 106.667v810.666h810.666V106.667zM144 337.333h220.427v156H144z m257.76 156v-156h220.48v156z m220.48 37.334v156H401.76v-156z m-478.24 0h220.427v156H144zM144 880V724h220.427v156z m257.76 0V724h220.48v156zM880 880H659.573V724H880z m0-193.333H659.573v-156H880z m0-193.334H659.573v-156H880zM880 300H144V144h736z" fill="#60A5FA" p-id="147678"  filter="url(#openGlow)"></path><path d="M909.333 114.667v794.666H114.667V114.667h794.666M136 308h752V136H136v172m515.573 193.333H888v-172H651.573v172m-257.813 0h236.48v-172H393.76v172m-257.76 0h236.427v-172H136v172m515.573 193.334H888v-172H651.573v172m-257.813 0h236.48v-172H393.76v172m-257.76 0h236.427v-172H136v172M651.573 888H888V716H651.573v172m-257.813 0h236.48V716H393.76v172M136 888h236.427V716H136v172m781.333-781.333H106.667v810.666h810.666V106.667zM144 300V144h736v156z m515.573 193.333v-156H880v156z m-257.813 0v-156h220.48v156z m-257.76 0v-156h220.427v156z m515.573 193.334v-156H880v156z m-257.813 0v-156h220.48v156z m-257.76 0v-156h220.427v156zM659.573 880V724H880v156z m-257.813 0V724h220.48v156zM144 880V724h220.427v156z" fill="#60A5FA" p-id="147679"  filter="url(#openGlow)"></path></svg>