<svg t="1753771891734" class="icon" viewBox="0 0 1024 1024" version="1.1" xmlns="http://www.w3.org/2000/svg" p-id="21738" width="16" height="16"><path d="M502.529657 839.533082l434.970281-410.756918a8.292949 8.292949 0 0 0 2.661934-6.859599L910.778214 94.703427a17.916865 17.916865 0 0 0-16.790662-15.869223l-346.665733-27.54078a9.214387 9.214387 0 0 0-7.269128 2.45717L105.133602 464.353938a8.395331 8.395331 0 0 0 0 12.28585L489.527133 839.533082c3.583373 3.480991 9.419152 3.480991 13.002524 0zM574.453071 131.919314l258.309995 20.62999 21.858575 243.874122-358.695628 338.526358-280.168571-264.40173 358.695629-338.62874z m69.210288 202.204614c0-28.820556 24.725273-52.11248 55.183943-52.11248 30.509861 0 55.235134 23.291924 55.235134 52.11248 0 28.769365-24.725273 52.11248-55.235134 52.112481l-55.183943-52.112481z m326.34289 233.43115l-45.560027-42.898093a9.623916 9.623916 0 0 0-13.002525 0l-416.336741 392.276952-273.25778-257.337366a9.623916 9.623916 0 0 0-13.002524 0l-45.560027 42.898092a8.395331 8.395331 0 0 0 0 12.28585l279.707851 263.633864 45.560027 42.898093c3.583373 3.327418 9.419152 3.327418 13.002525 0l468.39803-441.522733a8.395331 8.395331 0 0 0 0-12.28585z" p-id="21739" fill="#D1D5DB"></path></svg>